<svg width="32" height="32" viewBox="0 0 32 32" fill="none" xmlns="http://www.w3.org/2000/svg">
<path d="M21.332 14.666C23.5454 14.666 25.3187 12.8793 25.3187 10.666C25.3187 8.45268 23.5454 6.66602 21.332 6.66602C19.1187 6.66602 17.332 8.45268 17.332 10.666C17.332 12.8793 19.1187 14.666 21.332 14.666ZM10.6654 14.666C12.8787 14.666 14.652 12.8793 14.652 10.666C14.652 8.45268 12.8787 6.66602 10.6654 6.66602C8.45203 6.66602 6.66536 8.45268 6.66536 10.666C6.66536 12.8793 8.45203 14.666 10.6654 14.666ZM10.6654 17.3327C7.5587 17.3327 1.33203 18.8927 1.33203 21.9993V25.3327H19.9987V21.9993C19.9987 18.8927 13.772 17.3327 10.6654 17.3327ZM21.332 17.3327C20.9454 17.3327 20.5054 17.3593 20.0387 17.3993C21.5854 18.5193 22.6654 20.026 22.6654 21.9993V25.3327H30.6654V21.9993C30.6654 18.8927 24.4387 17.3327 21.332 17.3327Z" fill="#BFB7B7"/>
</svg>
