<svg width="32" height="32" viewBox="0 0 32 32" fill="none" xmlns="http://www.w3.org/2000/svg">
<path d="M1.77734 21.833H12.4443C13.146 21.833 13.7227 22.4097 13.7227 23.1113V30.2227C13.7224 30.9241 13.1458 31.5 12.4443 31.5H1.77734C1.07605 31.4998 0.500237 30.924 0.5 30.2227V23.1113L0.506836 22.9814C0.572554 22.34 1.11966 21.8332 1.77734 21.833ZM19.5557 14.7227H30.2227C30.9241 14.7229 31.5 15.2985 31.5 16V30.2227C31.4998 30.924 30.924 31.4998 30.2227 31.5H19.5557C18.8542 31.5 18.2776 30.9241 18.2773 30.2227V16C18.2773 15.2984 18.854 14.7227 19.5557 14.7227ZM1.77734 0.5H12.4443C13.1458 0.5 13.7224 1.0759 13.7227 1.77734V16C13.7227 16.7016 13.146 17.2773 12.4443 17.2773H1.77734C1.07591 17.2771 0.5 16.7015 0.5 16V1.77734C0.500237 1.07605 1.07605 0.500237 1.77734 0.5ZM19.5557 0.5H30.2227C30.924 0.500237 31.4998 1.07605 31.5 1.77734V8.88867C31.5 9.59016 30.9241 10.1668 30.2227 10.167H19.5557C18.854 10.167 18.2773 9.59031 18.2773 8.88867V1.77734C18.2776 1.0759 18.8542 0.5 19.5557 0.5Z" fill="#BFB7B7"/>
<path d="M1.77734 21.833H12.4443C13.146 21.833 13.7227 22.4097 13.7227 23.1113V30.2227C13.7224 30.9241 13.1458 31.5 12.4443 31.5H1.77734C1.07605 31.4998 0.500237 30.924 0.5 30.2227V23.1113L0.506836 22.9814C0.572554 22.34 1.11966 21.8332 1.77734 21.833ZM19.5557 14.7227H30.2227C30.9241 14.7229 31.5 15.2985 31.5 16V30.2227C31.4998 30.924 30.924 31.4998 30.2227 31.5H19.5557C18.8542 31.5 18.2776 30.9241 18.2773 30.2227V16C18.2773 15.2984 18.854 14.7227 19.5557 14.7227ZM1.77734 0.5H12.4443C13.1458 0.5 13.7224 1.0759 13.7227 1.77734V16C13.7227 16.7016 13.146 17.2773 12.4443 17.2773H1.77734C1.07591 17.2771 0.5 16.7015 0.5 16V1.77734C0.500237 1.07605 1.07605 0.500237 1.77734 0.5ZM19.5557 0.5H30.2227C30.924 0.500237 31.4998 1.07605 31.5 1.77734V8.88867C31.5 9.59016 30.9241 10.1668 30.2227 10.167H19.5557C18.854 10.167 18.2773 9.59031 18.2773 8.88867V1.77734C18.2776 1.0759 18.8542 0.5 19.5557 0.5Z" stroke="black"/>
<path d="M1.77734 21.833H12.4443C13.146 21.833 13.7227 22.4097 13.7227 23.1113V30.2227C13.7224 30.9241 13.1458 31.5 12.4443 31.5H1.77734C1.07605 31.4998 0.500237 30.924 0.5 30.2227V23.1113L0.506836 22.9814C0.572554 22.34 1.11966 21.8332 1.77734 21.833ZM19.5557 14.7227H30.2227C30.9241 14.7229 31.5 15.2985 31.5 16V30.2227C31.4998 30.924 30.924 31.4998 30.2227 31.5H19.5557C18.8542 31.5 18.2776 30.9241 18.2773 30.2227V16C18.2773 15.2984 18.854 14.7227 19.5557 14.7227ZM1.77734 0.5H12.4443C13.1458 0.5 13.7224 1.0759 13.7227 1.77734V16C13.7227 16.7016 13.146 17.2773 12.4443 17.2773H1.77734C1.07591 17.2771 0.5 16.7015 0.5 16V1.77734C0.500237 1.07605 1.07605 0.500237 1.77734 0.5ZM19.5557 0.5H30.2227C30.924 0.500237 31.4998 1.07605 31.5 1.77734V8.88867C31.5 9.59016 30.9241 10.1668 30.2227 10.167H19.5557C18.854 10.167 18.2773 9.59031 18.2773 8.88867V1.77734C18.2776 1.0759 18.8542 0.5 19.5557 0.5Z" stroke="black" stroke-opacity="0.2"/>
<path d="M1.77734 21.833H12.4443C13.146 21.833 13.7227 22.4097 13.7227 23.1113V30.2227C13.7224 30.9241 13.1458 31.5 12.4443 31.5H1.77734C1.07605 31.4998 0.500237 30.924 0.5 30.2227V23.1113L0.506836 22.9814C0.572554 22.34 1.11966 21.8332 1.77734 21.833ZM19.5557 14.7227H30.2227C30.9241 14.7229 31.5 15.2985 31.5 16V30.2227C31.4998 30.924 30.924 31.4998 30.2227 31.5H19.5557C18.8542 31.5 18.2776 30.9241 18.2773 30.2227V16C18.2773 15.2984 18.854 14.7227 19.5557 14.7227ZM1.77734 0.5H12.4443C13.1458 0.5 13.7224 1.0759 13.7227 1.77734V16C13.7227 16.7016 13.146 17.2773 12.4443 17.2773H1.77734C1.07591 17.2771 0.5 16.7015 0.5 16V1.77734C0.500237 1.07605 1.07605 0.500237 1.77734 0.5ZM19.5557 0.5H30.2227C30.924 0.500237 31.4998 1.07605 31.5 1.77734V8.88867C31.5 9.59016 30.9241 10.1668 30.2227 10.167H19.5557C18.854 10.167 18.2773 9.59031 18.2773 8.88867V1.77734C18.2776 1.0759 18.8542 0.5 19.5557 0.5Z" stroke="black" stroke-opacity="0.2"/>
<path d="M1.77734 21.833H12.4443C13.146 21.833 13.7227 22.4097 13.7227 23.1113V30.2227C13.7224 30.9241 13.1458 31.5 12.4443 31.5H1.77734C1.07605 31.4998 0.500237 30.924 0.5 30.2227V23.1113L0.506836 22.9814C0.572554 22.34 1.11966 21.8332 1.77734 21.833ZM19.5557 14.7227H30.2227C30.9241 14.7229 31.5 15.2985 31.5 16V30.2227C31.4998 30.924 30.924 31.4998 30.2227 31.5H19.5557C18.8542 31.5 18.2776 30.9241 18.2773 30.2227V16C18.2773 15.2984 18.854 14.7227 19.5557 14.7227ZM1.77734 0.5H12.4443C13.1458 0.5 13.7224 1.0759 13.7227 1.77734V16C13.7227 16.7016 13.146 17.2773 12.4443 17.2773H1.77734C1.07591 17.2771 0.5 16.7015 0.5 16V1.77734C0.500237 1.07605 1.07605 0.500237 1.77734 0.5ZM19.5557 0.5H30.2227C30.924 0.500237 31.4998 1.07605 31.5 1.77734V8.88867C31.5 9.59016 30.9241 10.1668 30.2227 10.167H19.5557C18.854 10.167 18.2773 9.59031 18.2773 8.88867V1.77734C18.2776 1.0759 18.8542 0.5 19.5557 0.5Z" stroke="#2A6070"/>
</svg>
