<svg width="32" height="32" viewBox="0 0 32 32" fill="none" xmlns="http://www.w3.org/2000/svg">
<path d="M15.9974 25.3327C21.1521 25.3327 25.3307 21.154 25.3307 15.9993C25.3307 10.8447 21.1521 6.66602 15.9974 6.66602C10.8427 6.66602 6.66406 10.8447 6.66406 15.9993C6.66406 21.154 10.8427 25.3327 15.9974 25.3327Z" stroke="#BFB7B7" stroke-width="2"/>
<path d="M7.95169 4.18164C7.04716 4.42389 6.22236 4.90003 5.56022 5.56217C4.89808 6.22431 4.42194 7.04911 4.17969 7.95364M24.045 4.18164C24.9495 4.42389 25.7744 4.90003 26.4365 5.56217C27.0986 6.22431 27.5748 7.04911 27.817 7.95364M15.9984 10.667V15.667C15.9984 15.851 16.1477 16.0003 16.3317 16.0003H19.9984" stroke="#BFB7B7" stroke-width="2" stroke-linecap="round"/>
</svg>
