<svg width="60" height="65" viewBox="0 0 60 65" fill="none" xmlns="http://www.w3.org/2000/svg">
<rect width="60" height="65" rx="13" fill="#2A6070"/>
<path d="M14.736 32.858C14.736 31.2633 15.0657 29.845 15.725 28.603C16.3997 27.3457 17.3503 26.372 18.577 25.682C19.8037 24.9767 21.2143 24.624 22.809 24.624C24.833 24.624 26.535 25.1683 27.915 26.257C29.295 27.3303 30.1843 28.7947 30.583 30.65H25.73C25.4387 30.0367 25.0323 29.569 24.511 29.247C24.005 28.925 23.4147 28.764 22.74 28.764C21.6973 28.764 20.8617 29.1397 20.233 29.891C19.6197 30.627 19.313 31.616 19.313 32.858C19.313 34.1153 19.6197 35.1197 20.233 35.871C20.8617 36.607 21.6973 36.975 22.74 36.975C23.4147 36.975 24.005 36.814 24.511 36.492C25.0323 36.17 25.4387 35.7023 25.73 35.089H30.583C30.1843 36.9443 29.295 38.4163 27.915 39.505C26.535 40.5783 24.833 41.115 22.809 41.115C21.2143 41.115 19.8037 40.77 18.577 40.08C17.3503 39.3747 16.3997 38.401 15.725 37.159C15.0657 35.9017 14.736 34.468 14.736 32.858ZM37.2257 28.396V31.041H42.4007V34.468H37.2257V37.389H43.0907V41H32.7177V24.785H43.0907V28.396H37.2257Z" fill="white"/>
</svg>
