<svg width="189" height="189" viewBox="0 0 189 189" fill="none" xmlns="http://www.w3.org/2000/svg">
<path fill-rule="evenodd" clip-rule="evenodd" d="M165.375 39.1034C165.375 41.3714 164.257 45.7901 151.436 50.6781C138.616 55.566 118.724 58.6552 94.5 58.6552C70.2765 58.6552 50.4158 55.566 37.5638 50.6781C24.7275 45.7901 23.625 41.3714 23.625 39.1034C23.625 36.8354 24.7433 32.4168 37.5638 27.5288C50.3843 22.6409 70.2765 19.5517 94.5 19.5517C118.724 19.5517 138.584 22.6409 151.436 27.5288C164.257 32.4168 165.375 36.8354 165.375 39.1034ZM142.569 73.7752C128.488 76.747 112.061 78.2069 94.5 78.2069C76.9388 78.2069 60.5115 76.734 46.431 73.7752L77.616 111.64C80.9235 115.655 82.6875 120.4 82.6875 125.248V169.175C83.6115 169.348 84.924 169.44 86.625 169.448C93.2715 169.448 98.4217 167.623 101.587 165.329C104.501 163.218 106.312 160.376 106.312 156.414V125.261C106.312 120.4 108.076 115.655 111.384 111.64L142.569 73.7752ZM94.5 0C146.695 0 189 13.0345 189 39.1034C189.003 47.5944 185.912 55.8889 180.133 62.9044L130.914 122.654C130.275 123.421 129.934 124.33 129.938 125.261V156.414C129.938 175.966 110.25 189 86.625 189C63 189 59.0625 175.966 59.0625 175.966V125.261C59.0707 124.332 58.7355 123.422 58.1018 122.654L8.86725 62.9044C3.08756 55.8889 -0.00260409 47.5944 1.64657e-06 39.1034C1.64657e-06 13.0345 42.3045 0 94.5 0ZM80.64 168.614C80.4825 168.545 80.4352 168.484 80.4352 168.484L80.64 168.614Z" fill="#112240"/>
</svg>
