<svg width="30" height="20" viewBox="0 0 30 20" fill="none" xmlns="http://www.w3.org/2000/svg">
<path d="M29.0625 16.6667H3.75V0.833333C3.75 0.372917 3.33047 0 2.8125 0H0.9375C0.419531 0 0 0.372917 0 0.833333V18.3333C0 19.2536 0.839648 20 1.875 20H29.0625C29.5805 20 30 19.6271 30 19.1667V17.5C30 17.0396 29.5805 16.6667 29.0625 16.6667ZM27.1875 1.66667H20.2699C19.0172 1.66667 18.3896 3.01302 19.2756 3.80052L21.174 5.48802L16.875 9.3099L12.576 5.48854C11.8436 4.8375 10.6564 4.8375 9.92461 5.48854L5.89981 9.06615C5.53359 9.39167 5.53359 9.91927 5.89981 10.2448L7.22519 11.4229C7.59141 11.7484 8.18496 11.7484 8.55117 11.4229L11.25 9.02344L15.549 12.8448C16.2814 13.4958 17.4686 13.4958 18.2004 12.8448L23.8254 7.84479L25.7238 9.53229C26.6098 10.3198 28.1244 9.76198 28.1244 8.64844V2.5C28.125 2.03958 27.7055 1.66667 27.1875 1.66667Z" fill="black"/>
</svg>
