<svg width="32" height="32" viewBox="0 0 32 32" fill="none" xmlns="http://www.w3.org/2000/svg">
<path d="M14.4353 29.3327C13.8353 29.3327 13.3188 29.1327 12.8859 28.7327C12.453 28.3327 12.1917 27.8438 12.1019 27.266L11.8019 25.066C11.513 24.9549 11.241 24.8216 10.9859 24.666C10.7308 24.5105 10.4806 24.3438 10.2353 24.166L8.16859 25.0327C7.61304 25.2771 7.05748 25.2993 6.50193 25.0993C5.94637 24.8993 5.51304 24.5438 5.20193 24.0327L3.63526 21.2993C3.32415 20.7882 3.23526 20.2438 3.36859 19.666C3.50193 19.0882 3.80193 18.6105 4.26859 18.2327L6.03526 16.8993C6.01304 16.7438 6.00193 16.5936 6.00193 16.4487V15.5487C6.00193 15.4047 6.01304 15.2549 6.03526 15.0993L4.26859 13.766C3.80193 13.3882 3.50193 12.9105 3.36859 12.3327C3.23526 11.7549 3.32415 11.2105 3.63526 10.6993L5.20193 7.96602C5.51304 7.4549 5.94637 7.09935 6.50193 6.89935C7.05748 6.69935 7.61304 6.72157 8.16859 6.96602L10.2353 7.83268C10.4797 7.6549 10.7353 7.48824 11.0019 7.33268C11.2686 7.17713 11.5353 7.04379 11.8019 6.93268L12.1019 4.73268C12.1908 4.1549 12.4521 3.66602 12.8859 3.26602C13.3197 2.86602 13.8361 2.66602 14.4353 2.66602H17.5686C18.1686 2.66602 18.6855 2.86602 19.1193 3.26602C19.553 3.66602 19.8139 4.1549 19.9019 4.73268L20.2019 6.93268C20.4908 7.04379 20.7633 7.17713 21.0193 7.33268C21.2753 7.48824 21.525 7.6549 21.7686 7.83268L23.8353 6.96602C24.3908 6.72157 24.9464 6.69935 25.5019 6.89935C26.0575 7.09935 26.4908 7.4549 26.8019 7.96602L28.3686 10.6993C28.6797 11.2105 28.7686 11.7549 28.6353 12.3327C28.5019 12.9105 28.2019 13.3882 27.7353 13.766L25.9686 15.0993C25.9908 15.2549 26.0019 15.4051 26.0019 15.55V16.4487C26.0019 16.5936 25.9797 16.7438 25.9353 16.8993L27.7019 18.2327C28.1686 18.6105 28.4686 19.0882 28.6019 19.666C28.7353 20.2438 28.6464 20.7882 28.3353 21.2993L26.7353 24.0327C26.4241 24.5438 25.9908 24.8993 25.4353 25.0993C24.8797 25.2993 24.3241 25.2771 23.7686 25.0327L21.7686 24.166C21.5241 24.3438 21.2686 24.5105 21.0019 24.666C20.7353 24.8216 20.4686 24.9549 20.2019 25.066L19.9019 27.266C19.813 27.8438 19.5521 28.3327 19.1193 28.7327C18.6864 29.1327 18.1695 29.3327 17.5686 29.3327H14.4353ZM14.6686 26.666H17.3019L17.7686 23.1327C18.4575 22.9549 19.0966 22.694 19.6859 22.35C20.2753 22.006 20.8139 21.5891 21.3019 21.0993L24.6019 22.466L25.9019 20.1993L23.0353 18.0327C23.1464 17.7216 23.2241 17.394 23.2686 17.05C23.313 16.706 23.3353 16.3558 23.3353 15.9993C23.3353 15.6429 23.313 15.2931 23.2686 14.95C23.2241 14.6069 23.1464 14.2789 23.0353 13.966L25.9019 11.7993L24.6019 9.53268L21.3019 10.9327C20.813 10.4216 20.2744 9.99402 19.6859 9.65001C19.0975 9.30602 18.4584 9.04468 17.7686 8.86602L17.3353 5.33268H14.7019L14.2353 8.86602C13.5464 9.04379 12.9077 9.30513 12.3193 9.65001C11.7308 9.9949 11.1917 10.4113 10.7019 10.8993L7.40193 9.53268L6.10193 11.7993L8.96859 13.9327C8.85748 14.266 8.7797 14.5993 8.73526 14.9327C8.69082 15.266 8.66859 15.6216 8.66859 15.9993C8.66859 16.3549 8.69082 16.6993 8.73526 17.0327C8.7797 17.366 8.85748 17.6993 8.96859 18.0327L6.10193 20.1993L7.40193 22.466L10.7019 21.066C11.1908 21.5771 11.7299 22.0051 12.3193 22.35C12.9086 22.6949 13.5473 22.9558 14.2353 23.1327L14.6686 26.666ZM16.0686 20.666C17.3575 20.666 18.4575 20.2105 19.3686 19.2993C20.2797 18.3882 20.7353 17.2882 20.7353 15.9993C20.7353 14.7105 20.2797 13.6105 19.3686 12.6993C18.4575 11.7882 17.3575 11.3327 16.0686 11.3327C14.7575 11.3327 13.6521 11.7882 12.7526 12.6993C11.853 13.6105 11.4028 14.7105 11.4019 15.9993C11.401 17.2882 11.8513 18.3882 12.7526 19.2993C13.6539 20.2105 14.7593 20.666 16.0686 20.666Z" fill="#BFB7B7"/>
</svg>
