<svg width="20" height="20" viewBox="0 0 20 20" fill="none" xmlns="http://www.w3.org/2000/svg">
<path d="M9.9013 7.6165C10.968 7.6665 11.243 8.57484 11.2596 8.99984H12.7513C12.6846 7.34984 11.5096 6.3415 9.8763 6.3415C8.03464 6.3415 6.66797 7.49984 6.66797 10.1165C6.66797 11.7332 7.44297 13.6498 9.86797 13.6498C11.718 13.6498 12.7096 12.2748 12.7346 11.1915H11.243C11.218 11.6832 10.868 12.3415 9.88463 12.3915C8.79297 12.3582 8.33464 11.5082 8.33464 10.1165C8.33464 7.70817 9.4013 7.63317 9.9013 7.6165ZM10.0013 1.6665C5.4013 1.6665 1.66797 5.39984 1.66797 9.99984C1.66797 14.5998 5.4013 18.3332 10.0013 18.3332C14.6013 18.3332 18.3346 14.5998 18.3346 9.99984C18.3346 5.39984 14.6013 1.6665 10.0013 1.6665ZM10.0013 16.6665C6.3263 16.6665 3.33464 13.6748 3.33464 9.99984C3.33464 6.32484 6.3263 3.33317 10.0013 3.33317C13.6763 3.33317 16.668 6.32484 16.668 9.99984C16.668 13.6748 13.6763 16.6665 10.0013 16.6665Z" fill="#BFB7B7"/>
</svg>
