<svg width="83" height="83" viewBox="0 0 83 83" fill="none" xmlns="http://www.w3.org/2000/svg">
<rect width="83" height="83" rx="41.5" fill="#112240"/>
<path d="M61.9375 58.75L54.25 51.0625C55 49.1875 54.625 46.75 52.9375 45.25C51.25 43.5625 48.8125 43.1875 46.75 44.125L50.3125 47.6875L47.6875 50.3125L43.9375 46.5625C43 48.625 43.375 51.0625 45.0625 52.9375C46.75 54.625 49 55 50.875 54.25L58.5625 61.9375C58.9375 62.3125 59.5 62.3125 59.6875 61.9375L61.5625 60.0625C62.125 59.5 62.125 58.9375 61.9375 58.75ZM43.375 56.5H22.75V52.75C22.75 48.625 29.5 45.25 37.75 45.25C38.6875 45.25 39.625 45.25 40.375 45.4375C39.8125 46.5625 39.625 47.6875 39.625 49C39.625 52 41.125 54.8125 43.375 56.5ZM37.75 26.5C33.625 26.5 30.25 29.875 30.25 34C30.25 38.125 33.625 41.5 37.75 41.5C41.875 41.5 45.25 38.125 45.25 34C45.25 29.875 41.875 26.5 37.75 26.5Z" fill="#C89B3C"/>
</svg>
