<svg width="35" height="35" viewBox="0 0 35 35" fill="none" xmlns="http://www.w3.org/2000/svg">
<path d="M0 2.1875H35V28.4375H18.4056L13.125 33.7181L7.84438 28.4375H0V2.1875ZM13.125 15.3125C13.125 14.7323 12.8945 14.1759 12.4843 13.7657C12.0741 13.3555 11.5177 13.125 10.9375 13.125C10.3573 13.125 9.80094 13.3555 9.3907 13.7657C8.98047 14.1759 8.75 14.7323 8.75 15.3125C8.75 15.8927 8.98047 16.4491 9.3907 16.8593C9.80094 17.2695 10.3573 17.5 10.9375 17.5C11.5177 17.5 12.0741 17.2695 12.4843 16.8593C12.8945 16.4491 13.125 15.8927 13.125 15.3125ZM19.6875 15.3125C19.6875 14.7323 19.457 14.1759 19.0468 13.7657C18.6366 13.3555 18.0802 13.125 17.5 13.125C16.9198 13.125 16.3634 13.3555 15.9532 13.7657C15.543 14.1759 15.3125 14.7323 15.3125 15.3125C15.3125 15.8927 15.543 16.4491 15.9532 16.8593C16.3634 17.2695 16.9198 17.5 17.5 17.5C18.0802 17.5 18.6366 17.2695 19.0468 16.8593C19.457 16.4491 19.6875 15.8927 19.6875 15.3125ZM26.25 15.3125C26.25 14.7323 26.0195 14.1759 25.6093 13.7657C25.1991 13.3555 24.6427 13.125 24.0625 13.125C23.4823 13.125 22.9259 13.3555 22.5157 13.7657C22.1055 14.1759 21.875 14.7323 21.875 15.3125C21.875 15.8927 22.1055 16.4491 22.5157 16.8593C22.9259 17.2695 23.4823 17.5 24.0625 17.5C24.6427 17.5 25.1991 17.2695 25.6093 16.8593C26.0195 16.4491 26.25 15.8927 26.25 15.3125Z" fill="white"/>
</svg>
