<svg width="35" height="35" viewBox="0 0 35 35" fill="none" xmlns="http://www.w3.org/2000/svg">
<path d="M23.332 16.0417C25.7529 16.0417 27.6924 14.0875 27.6924 11.6667C27.6924 9.24585 25.7529 7.29169 23.332 7.29169C20.9112 7.29169 18.957 9.24585 18.957 11.6667C18.957 14.0875 20.9112 16.0417 23.332 16.0417ZM11.6654 16.0417C14.0862 16.0417 16.0258 14.0875 16.0258 11.6667C16.0258 9.24585 14.0862 7.29169 11.6654 7.29169C9.24453 7.29169 7.29036 9.24585 7.29036 11.6667C7.29036 14.0875 9.24453 16.0417 11.6654 16.0417ZM11.6654 18.9584C8.26745 18.9584 1.45703 20.6646 1.45703 24.0625V27.7084H21.8737V24.0625C21.8737 20.6646 15.0633 18.9584 11.6654 18.9584ZM23.332 18.9584C22.9091 18.9584 22.4279 18.9875 21.9174 19.0313C23.6091 20.2563 24.7904 21.9042 24.7904 24.0625V27.7084H33.5404V24.0625C33.5404 20.6646 26.7299 18.9584 23.332 18.9584Z" fill="white"/>
</svg>
