<svg width="35" height="35" viewBox="0 0 35 35" fill="none" xmlns="http://www.w3.org/2000/svg">
<g clip-path="url(#clip0_1240_183)">
<path d="M0.730469 34.2709H34.2721M7.38193 12.9427L11.579 8.74421M15.4028 8.01504L18.8707 11.4844M21.9448 11.464L27.6411 6.11921M6.5638 26.9792L2.1888 28.4375V34.2709H6.5638V26.9792ZM15.3138 18.2292L10.9388 19.6875V34.2709H15.3138V18.2292ZM24.0638 22.6042L19.6888 24.0625V34.2709H24.0638V22.6042ZM32.8138 13.2184L28.4388 14.6767V34.2709H32.8138V13.2184ZM29.168 1.45837L26.0734 4.55004L29.168 7.64462L32.2611 4.55296L29.168 1.45837ZM20.418 9.93858L17.3248 13.0302L20.418 16.1263L23.5111 13.0332L20.418 9.93858ZM13.1263 4.10525L10.0346 7.19692L13.1263 10.293L16.2194 7.19983L13.1278 4.10671L13.1263 4.10525ZM5.83464 11.3969L2.74297 14.4886L5.83464 17.5846L8.92922 14.4915L5.83464 11.3969Z" stroke="white" stroke-width="1.45833" stroke-miterlimit="10" stroke-linecap="round" stroke-linejoin="round"/>
</g>
<defs>
<clipPath id="clip0_1240_183">
<rect width="35" height="35" fill="white"/>
</clipPath>
</defs>
</svg>
