<svg width="10" height="10" viewBox="0 0 10 10" fill="none" xmlns="http://www.w3.org/2000/svg">
<path d="M6.46333 8.86996C6.91833 8.6719 7.31417 8.40454 7.65083 8.06788C7.9875 7.73121 8.25486 7.33538 8.45292 6.88038C8.65097 6.42538 8.75 5.93746 8.75 5.41663C8.75 4.89579 8.65097 4.40802 8.45292 3.95329C8.25486 3.49857 7.98764 3.10274 7.65125 2.76579C7.31486 2.42885 6.91903 2.16149 6.46375 1.96371C6.00847 1.76593 5.52056 1.6669 5 1.66663C4.47944 1.66635 3.99153 1.76538 3.53625 1.96371C3.08097 2.16204 2.68514 2.4294 2.34875 2.76579C2.01236 3.10218 1.745 3.49801 1.54667 3.95329C1.34833 4.40857 1.24944 4.89635 1.25 5.41663C1.25056 5.9369 1.34944 6.42482 1.54667 6.88038C1.74389 7.33593 2.01125 7.73177 2.34875 8.06788C2.68625 8.40399 3.08208 8.67135 3.53625 8.86996C3.99042 9.06857 4.47833 9.16746 5 9.16663C5.52167 9.16579 6.00944 9.0669 6.46333 8.86996ZM3.83333 7.16663L3.25 6.58329L4.58333 5.24996V3.33329H5.41667V5.58329L3.83333 7.16663ZM7.66667 0.979126L7.08333 1.56246L8.85417 3.33329L9.4375 2.74996L7.66667 0.979126ZM2.33333 0.979126L0.5625 2.74996L1.14583 3.33329L2.91667 1.56246L2.33333 0.979126ZM5 8.33329C4.1875 8.33329 3.49819 8.05038 2.93208 7.48454C2.36597 6.91871 2.08306 6.2294 2.08333 5.41663C2.08361 4.60385 2.36653 3.91468 2.93208 3.34913C3.49764 2.78357 4.18694 2.50051 5 2.49996C5.81306 2.4994 6.50222 2.78246 7.0675 3.34913C7.63278 3.91579 7.91583 4.60496 7.91667 5.41663C7.9175 6.22829 7.63444 6.9176 7.0675 7.48454C6.50056 8.05149 5.81139 8.3344 5 8.33329Z" fill="#F24822"/>
</svg>
