<svg width="35" height="35" viewBox="0 0 35 35" fill="none" xmlns="http://www.w3.org/2000/svg">
<path d="M17.5013 2.91666C25.5557 2.91666 32.0846 9.44562 32.0846 17.5C32.0846 25.5544 25.5557 32.0833 17.5013 32.0833C9.44693 32.0833 2.91797 25.5544 2.91797 17.5C2.91797 9.44562 9.44693 2.91666 17.5013 2.91666ZM17.5013 8.74999C17.1145 8.74999 16.7436 8.90364 16.4701 9.17713C16.1966 9.45062 16.043 9.82155 16.043 10.2083V17.5C16.0431 17.8867 16.1968 18.2576 16.4703 18.531L20.8453 22.906C21.1203 23.1717 21.4887 23.3187 21.8711 23.3153C22.2534 23.312 22.6192 23.1587 22.8896 22.8883C23.16 22.6179 23.3133 22.2521 23.3167 21.8697C23.32 21.4874 23.173 21.119 22.9073 20.8439L18.9596 16.8962V10.2083C18.9596 9.82155 18.806 9.45062 18.5325 9.17713C18.259 8.90364 17.8881 8.74999 17.5013 8.74999Z" fill="white"/>
</svg>
