<svg width="83" height="83" viewBox="0 0 83 83" fill="none" xmlns="http://www.w3.org/2000/svg">
<rect width="83" height="83" rx="41.5" fill="#112240"/>
<path d="M26.0181 24.28C26.0529 23.8569 26.2495 23.4634 26.567 23.1815C26.8844 22.8996 27.2983 22.7509 27.7226 22.7664C28.1469 22.7818 28.5489 22.9602 28.845 23.2645C29.1411 23.5688 29.3086 23.9755 29.3125 24.4V32.8262C29.3125 33.137 29.436 33.4351 29.6557 33.6549C29.8755 33.8747 30.1736 33.9981 30.4844 33.9981C30.7952 33.9981 31.0932 33.8747 31.313 33.6549C31.5328 33.4351 31.6562 33.137 31.6562 32.8262V24.1562C31.6562 23.7833 31.8044 23.4256 32.0681 23.1619C32.3319 22.8982 32.6895 22.75 33.0625 22.75C33.4355 22.75 33.7931 22.8982 34.0569 23.1619C34.3206 23.4256 34.4688 23.7833 34.4688 24.1562V32.8262C34.4688 33.137 34.5922 33.4351 34.812 33.6549C35.0318 33.8747 35.3298 33.9981 35.6406 33.9981C35.9514 33.9981 36.2495 33.8747 36.4693 33.6549C36.689 33.4351 36.8125 33.137 36.8125 32.8262V24.4C36.8164 23.9755 36.9839 23.5688 37.28 23.2645C37.5761 22.9602 37.9781 22.7818 38.4024 22.7664C38.8267 22.7509 39.2406 22.8996 39.558 23.1815C39.8755 23.4634 40.0721 23.8569 40.1069 24.28C40.1875 25.4275 40.5625 30.9437 40.5625 34C40.5625 36.5312 39.3062 38.77 37.39 40.1256C36.985 40.4125 36.8875 40.7162 36.8969 40.87C37.1275 44.3912 37.75 54.0287 37.75 55.5569C37.75 56.8001 37.2561 57.9924 36.3771 58.8714C35.498 59.7505 34.3057 60.2444 33.0625 60.2444C31.8193 60.2444 30.627 59.7505 29.7479 58.8714C28.8689 57.9924 28.375 56.8001 28.375 55.5569C28.375 54.0269 28.9975 44.3912 29.2281 40.87C29.2375 40.7162 29.14 40.4125 28.735 40.1256C27.7546 39.433 26.9547 38.5151 26.4027 37.4492C25.8506 36.3833 25.5625 35.2004 25.5625 34C25.5625 30.9437 25.9375 25.4275 26.0181 24.28ZM43.375 33.5312C43.375 30.6719 44.5109 27.9296 46.5328 25.9078C48.5546 23.8859 51.2969 22.75 54.1562 22.75C54.5292 22.75 54.8869 22.8982 55.1506 23.1619C55.4143 23.4256 55.5625 23.7833 55.5625 24.1562V40.0937C55.5625 40.69 55.7613 43.6469 55.9844 46.9225L55.9937 47.0781C56.2375 50.6556 56.5 54.5462 56.5 55.5569C56.5 56.8001 56.0061 57.9924 55.1271 58.8714C54.248 59.7505 53.0557 60.2444 51.8125 60.2444C50.5693 60.2444 49.377 59.7505 48.4979 58.8714C47.6189 57.9924 47.125 56.8001 47.125 55.5569C47.125 54.5931 47.365 50.6612 47.5975 47.0556C47.7137 45.235 47.8319 43.4706 47.92 42.1619L47.9631 41.5H46.6562C46.2253 41.5 45.7987 41.4151 45.4006 41.2502C45.0025 41.0853 44.6407 40.8436 44.3361 40.5389C44.0314 40.2343 43.7897 39.8725 43.6248 39.4744C43.4599 39.0763 43.375 38.6496 43.375 38.2187V33.5312Z" fill="#C89B3C"/>
</svg>
