<svg width="67" height="54" viewBox="0 0 67 54" fill="none" xmlns="http://www.w3.org/2000/svg">
<rect width="67" height="54" rx="17" fill="#112240"/>
<path d="M16 43V27.0479V10H31.0933C34.9497 10 38.1303 10.3975 40.6352 11.1924C43.14 11.9766 45.0051 13.0347 46.2305 14.3667C47.4559 15.688 25.0183 23.7625 47.9565 20.2498C47.9565 20.2498 47.6452 21.3545 46.7982 22.2783C45.9692 23.2021 44.87 23.9326 43.5004 24.4697C42.1489 25.0068 40.6802 25.4043 39.0944 25.6621V25.9844C40.7883 26.0488 42.4913 26.4033 44.2032 27.0479C45.9152 27.6924 47.3478 28.6162 48.5011 29.8193C49.6545 31.0225 51 32.4941 51 34.2344C51 35.8887 49.6004 37.3765 48.339 38.6978C47.0775 40.019 45.0862 41.0664 42.3651 41.8398C39.644 42.6133 36.103 43 31.742 43H16ZM18.4428 39.4551H31.742C36.121 39.4551 39.2296 38.9502 41.0677 37.9404C42.9238 36.9199 43.8518 35.6846 43.8518 34.2344C43.8518 33.1172 43.3743 32.0859 42.4192 31.1406C41.4641 30.1846 40.1035 29.4219 38.3375 28.8525C36.5715 28.2725 34.4811 27.9824 32.0664 27.9824L22.3913 31.1406L18.4428 39.4551ZM18.4428 23.793L30.877 24.502C32.8953 24.502 34.7154 24.2656 36.3372 23.793C37.9771 23.3203 39.2746 22.6543 40.2297 21.7949C41.2028 20.9355 31.742 21.41 31.742 20.2498C31.742 18.7996 40.8424 16.0854 39.1485 15.0757C37.4545 14.0552 34.7695 13.5449 31.0933 13.5449H18.4428V23.793Z" fill="#C89B3C"/>
</svg>
