<svg width="62" height="59" viewBox="0 0 62 59" fill="none" xmlns="http://www.w3.org/2000/svg">
<path d="M0 59V30.4795V0H26.7366C33.568 0 39.2022 0.710613 43.6394 2.13184C48.0766 3.53385 51.3806 5.42562 53.5513 7.80713C55.722 10.1694 15.9753 24.6057 56.6087 18.3254C56.6087 18.3254 56.0572 20.3005 54.5568 21.9521C53.0884 23.6038 51.1411 24.9098 48.7151 25.8701C46.3209 26.8304 43.7192 27.541 40.9101 28.0019V28.5781C43.9108 28.6934 46.9274 29.3271 49.96 30.4795C52.9926 31.6318 55.5304 33.2835 57.5735 35.4346C59.6165 37.5856 62 40.2168 62 43.3281C62 46.2858 59.5207 48.9458 57.2862 51.3081C55.0516 53.6704 51.5242 55.543 46.7039 56.9258C41.8837 58.3086 35.611 59 27.8858 59H0ZM4.32723 52.6621H27.8858C35.6429 52.6621 41.1495 51.7594 44.4056 49.9541C47.6935 48.1296 49.3375 45.9209 49.3375 43.3281C49.3375 41.3307 48.4916 39.487 46.7997 37.7969C45.1078 36.0876 42.6977 34.724 39.5693 33.706C36.441 32.6689 32.738 32.1504 28.4604 32.1504L11.3217 37.7969L4.32723 52.6621ZM4.32723 24.6602L26.3535 25.9277C29.9288 25.9277 33.153 25.5052 36.026 24.6602C38.9309 23.8151 41.2293 22.6243 42.9212 21.0879C44.645 19.5514 27.8858 20.3996 27.8858 18.3254C27.8858 15.7326 44.0065 10.88 41.0058 9.07471C38.0052 7.25016 33.2487 6.33789 26.7366 6.33789H4.32723V24.6602Z" fill="#C89B3C"/>
</svg>
