<svg width="35" height="35" viewBox="0 0 35 35" fill="none" xmlns="http://www.w3.org/2000/svg">
<path d="M4.019 21.4608L4.77296 24.2783C5.65379 27.5668 6.09567 29.2118 7.09463 30.2779C7.88307 31.119 8.90309 31.7077 10.0259 31.9695C11.4492 32.302 13.0942 31.8616 16.3842 30.9808C19.6713 30.0999 21.3163 29.6595 22.3823 28.6606C22.4708 28.577 22.5564 28.4914 22.639 28.4039C22.1423 28.3591 21.6486 28.2861 21.1602 28.1852C20.1453 27.9839 18.9392 27.6602 17.513 27.2781L17.3569 27.2358L17.3205 27.227C15.7688 26.8099 14.4723 26.4629 13.4369 26.0895C12.3475 25.6958 11.3588 25.2102 10.5173 24.4227C9.35988 23.3382 8.54992 21.935 8.18983 20.3904C7.92733 19.2689 8.00317 18.1693 8.20733 17.0304C8.40275 15.9381 8.75275 14.6285 9.17275 13.0608L9.95296 10.1529L9.97921 10.0508C7.17921 10.8047 5.70483 11.251 4.72192 12.1712C3.87972 12.9602 3.29049 13.9814 3.02879 15.1054C2.69629 16.5272 3.13671 18.1722 4.019 21.4608Z" fill="white"/>
<path fill-rule="evenodd" clip-rule="evenodd" d="M30.3758 15.626L29.6204 18.4435C28.7381 21.732 28.2976 23.377 27.2987 24.4431C26.5104 25.2848 25.4904 25.874 24.3674 26.1362C24.2265 26.1693 24.0831 26.1945 23.9372 26.212C22.6029 26.3768 20.9739 25.9408 18.0106 25.1474C14.722 24.2652 13.077 23.8247 12.011 22.8258C11.169 22.0371 10.5798 21.0166 10.3179 19.8931C9.98536 18.4697 10.4258 16.8262 11.3081 13.5377L12.062 10.7202L12.4179 9.40037C13.0814 6.97078 13.5276 5.63349 14.3837 4.71912C15.1721 3.87795 16.1922 3.28928 17.3149 3.02745C18.7383 2.69495 20.3833 3.13537 23.6733 4.01766C26.9604 4.89849 28.6054 5.33891 29.6714 6.33641C30.5136 7.12545 31.1028 8.14657 31.3645 9.27057C31.697 10.6939 31.2566 12.3374 30.3758 15.626ZM16.1147 14.2989C16.152 14.1601 16.2161 14.0301 16.3037 13.9161C16.3912 13.8022 16.5003 13.7066 16.6247 13.6348C16.7492 13.563 16.8865 13.5165 17.029 13.4978C17.1715 13.4791 17.3162 13.4887 17.4549 13.526L24.4987 15.4145C24.6411 15.4483 24.7753 15.5103 24.8933 15.5969C25.0113 15.6835 25.1107 15.7928 25.1857 15.9185C25.2607 16.0442 25.3097 16.1837 25.3297 16.3287C25.3498 16.4737 25.3406 16.6212 25.3026 16.7625C25.2647 16.9039 25.1987 17.0362 25.1087 17.1516C25.0186 17.267 24.9064 17.3631 24.7785 17.4343C24.6506 17.5055 24.5098 17.5504 24.3643 17.5661C24.2188 17.5819 24.0716 17.5683 23.9314 17.5262L16.8876 15.6391C16.6077 15.5639 16.3691 15.3807 16.2242 15.1297C16.0792 14.8787 16.0399 14.5789 16.1147 14.2989ZM14.9831 18.5266C15.0583 18.2467 15.2415 18.0081 15.4925 17.8631C15.7435 17.7182 16.0418 17.6788 16.3218 17.7537L20.5481 18.8868C20.6912 18.9198 20.8261 18.9814 20.9449 19.0677C21.0638 19.154 21.164 19.2633 21.2396 19.3892C21.3152 19.5151 21.3648 19.6549 21.3852 19.8003C21.4056 19.9457 21.3966 20.0938 21.3586 20.2356C21.3206 20.3775 21.2544 20.5102 21.164 20.626C21.0736 20.7417 20.9608 20.838 20.8323 20.9092C20.7039 20.9804 20.5624 21.025 20.4164 21.0403C20.2703 21.0557 20.1227 21.0414 19.9822 20.9985L15.756 19.8668C15.6172 19.8296 15.4871 19.7654 15.3732 19.6779C15.2592 19.5904 15.1637 19.4813 15.0919 19.3568C15.0201 19.2324 14.9735 19.095 14.9549 18.9526C14.9362 18.8101 14.9458 18.6654 14.9831 18.5266Z" fill="white"/>
</svg>
