<svg width="83" height="83" viewBox="0 0 83 83" fill="none" xmlns="http://www.w3.org/2000/svg">
<rect width="83" height="83" rx="41.5" fill="#112240"/>
<path d="M45.568 44.7062L48.193 40.1688C48.3617 39.8875 48.2867 39.5312 48.043 39.325L45.268 37.15C45.3242 36.7375 45.3617 36.3062 45.3617 35.875C45.3617 35.4438 45.3242 35.0125 45.268 34.5813L48.043 32.4062C48.2867 32.2 48.3617 31.8438 48.193 31.5625L45.568 27.025C45.3992 26.7438 45.0617 26.6313 44.7617 26.7438L41.4992 28.0562C40.8242 27.5312 40.093 27.1 39.2867 26.7625L38.7992 23.2937C38.7678 23.1421 38.6856 23.0057 38.5664 22.9069C38.4471 22.808 38.2978 22.7527 38.143 22.75H32.893C32.5742 22.75 32.293 22.9937 32.2367 23.3125L31.7492 26.7812C30.9617 27.1188 30.2117 27.55 29.5367 28.075L26.2742 26.7625C25.9742 26.65 25.6367 26.7625 25.468 27.0437L22.843 31.5813C22.6742 31.8625 22.7492 32.2188 22.993 32.425L25.768 34.6C25.7117 35.0125 25.6742 35.4438 25.6742 35.875C25.6742 36.3062 25.7117 36.7375 25.768 37.1687L22.993 39.3438C22.7492 39.55 22.6742 39.9062 22.843 40.1875L25.468 44.725C25.6367 45.0063 25.9742 45.1187 26.2742 45.0063L29.5367 43.6938C30.2117 44.2188 30.943 44.65 31.7492 44.9875L32.2367 48.4562C32.293 48.7563 32.5742 49 32.893 49H38.143C38.4617 49 38.743 48.7563 38.7992 48.4375L39.2867 44.9688C40.0742 44.6313 40.8242 44.2 41.4992 43.675L44.7617 44.9875C45.0617 45.1 45.3992 44.9875 45.568 44.7062ZM35.518 39.625C33.4555 39.625 31.768 37.9375 31.768 35.875C31.768 33.8125 33.4555 32.125 35.518 32.125C37.5805 32.125 39.268 33.8125 39.268 35.875C39.268 37.9375 37.5805 39.625 35.518 39.625ZM60.0992 54.0063L58.2992 52.6188C58.3367 52.3563 58.3742 52.075 58.3742 51.7937C58.3742 51.5125 58.3555 51.2312 58.2992 50.9687L60.0805 49.5812C60.2305 49.45 60.2867 49.225 60.1742 49.0375L58.4867 46.1313C58.393 45.9438 58.168 45.8875 57.9617 45.9438L55.8805 46.7875C55.4492 46.45 54.9805 46.1688 54.4555 45.9625L54.1367 43.75C54.1293 43.6498 54.0849 43.5559 54.0121 43.4866C53.9394 43.4173 53.8434 43.3775 53.743 43.375H50.3867C50.1805 43.375 49.993 43.525 49.9742 43.7312L49.6555 45.9438C49.1492 46.1687 48.6617 46.4313 48.2305 46.7688L46.1492 45.925C46.0537 45.8891 45.9485 45.8882 45.8523 45.9225C45.7562 45.9568 45.6754 46.0242 45.6242 46.1125L43.9367 49.0188C43.843 49.2063 43.8617 49.4312 44.0305 49.5625L45.8117 50.95C45.7357 51.4974 45.7357 52.0526 45.8117 52.6L44.0305 53.9875C43.8805 54.1187 43.8242 54.3438 43.9367 54.5313L45.6242 57.4375C45.718 57.625 45.943 57.6813 46.1492 57.625L48.2305 56.7812C48.6617 57.1187 49.1305 57.4 49.6555 57.6063L49.9742 59.8188C50.0117 60.025 50.1805 60.175 50.3867 60.175H53.743C53.9492 60.175 54.1367 60.025 54.1555 59.8188L54.4742 57.6063C54.9805 57.3812 55.468 57.1187 55.8805 56.7812L57.9805 57.625C58.168 57.7 58.393 57.625 58.5055 57.4375L60.193 54.5313C60.3055 54.3625 60.2492 54.1375 60.0992 54.0063ZM52.0555 54.3062C51.7229 54.3061 51.3937 54.2405 51.0865 54.1131C50.7793 53.9858 50.5003 53.7991 50.2652 53.5639C50.0302 53.3287 49.8437 53.0495 49.7166 52.7422C49.5895 52.435 49.5241 52.1057 49.5242 51.7731C49.5243 51.4406 49.59 51.1113 49.7173 50.8042C49.8447 50.497 50.0313 50.2179 50.2665 49.9829C50.5018 49.7478 50.781 49.5614 51.0882 49.4343C51.3955 49.3071 51.7248 49.2418 52.0573 49.2419C52.7289 49.2421 53.3729 49.5091 53.8476 49.9842C54.3223 50.4593 54.5888 51.1034 54.5886 51.775C54.5883 52.4466 54.3213 53.0906 53.8463 53.5653C53.3712 54.04 52.727 54.3065 52.0555 54.3062Z" fill="#C89B3C"/>
</svg>
