<svg width="26" height="26" viewBox="0 0 26 26" fill="none" xmlns="http://www.w3.org/2000/svg">
<path d="M1.625 4.875C1.625 4.01305 1.96741 3.1864 2.5769 2.5769C3.1864 1.96741 4.01305 1.625 4.875 1.625H21.125C21.987 1.625 22.8136 1.96741 23.4231 2.5769C24.0326 3.1864 24.375 4.01305 24.375 4.875V21.125C24.375 22.3275 23.7218 23.3781 22.75 23.9403L21.5751 23.5625C20.7658 23.3021 19.8867 23.3692 19.1263 23.7494L17.875 24.375H15.4375L13 23.1562L10.5625 24.375H8.125L6.87375 23.7494C6.11332 23.3692 5.23419 23.3021 4.42488 23.5625L3.25 23.9403C2.75583 23.655 2.34549 23.2446 2.06024 22.7504C1.77498 22.2562 1.62487 21.6956 1.625 21.125V4.875Z" fill="#E1D8EC"/>
<path d="M8.125 8.9375V17.0625H1.625V17.875H8.125V24.375H8.9375V17.875H17.0625V24.375H17.875V17.875H24.375V17.0625H17.875V8.9375H24.375V8.125H17.875V1.625H17.0625V8.125H8.9375V1.625H8.125V8.125H1.625V8.9375H8.125ZM8.9375 8.9375H17.0625V17.0625H8.9375V8.9375Z" fill="#B4ACBC"/>
<path d="M4.875 24.375H8.125V8.29887C8.125 7.75287 7.68056 7.3125 7.12888 7.3125H4.24612C3.69444 7.3125 3.25 7.75288 3.25 8.29806V23.9403C3.72775 24.2166 4.28269 24.375 4.875 24.375Z" fill="#00D26A"/>
<path d="M14.4414 13.8125H11.5586C11.0069 13.8125 10.5625 14.2529 10.5625 14.7989V24.375H15.4375V14.7989C15.4375 14.2529 14.9931 13.8125 14.4414 13.8125Z" fill="#F70A8D"/>
<path d="M17.875 24.375H21.125C21.7173 24.375 22.2723 24.2166 22.75 23.9403V5.85731C22.75 5.31294 22.3056 4.875 21.7539 4.875H18.8711C18.3194 4.875 17.875 5.31375 17.875 5.85731V24.375Z" fill="#00A6ED"/>
</svg>
