<svg width="35" height="35" viewBox="0 0 35 35" fill="none" xmlns="http://www.w3.org/2000/svg">
<path d="M2.91797 23.5433V7.28875C2.91797 5.6875 4.21005 4.38666 5.80839 4.48437C7.23318 4.57187 8.91609 4.74541 10.2096 5.08521C11.7409 5.48916 13.558 6.34958 14.9959 7.10937C15.4436 7.34708 15.9205 7.51041 16.4076 7.60375V29.7398C15.961 29.6421 15.5301 29.4831 15.1271 29.2673C13.6688 28.4915 11.7876 27.5902 10.2096 27.1731C8.93068 26.8362 7.26964 26.6627 5.85651 26.5752C4.23922 26.4731 2.91797 25.165 2.91797 23.5433ZM18.5951 29.7398C19.0416 29.6421 19.4725 29.4831 19.8755 29.2673C21.3338 28.4915 23.2151 27.5902 24.793 27.1731C26.0719 26.8362 27.733 26.6627 29.1461 26.5752C30.7634 26.4731 32.0846 25.1635 32.0846 23.5419V7.19541C32.0846 5.63208 30.8509 4.34729 29.2876 4.40271C27.6411 4.46104 25.5907 4.63021 24.0638 5.08812C22.7396 5.48333 21.1982 6.27812 19.9426 7.00583C19.5214 7.24897 19.0676 7.43066 18.5951 7.54541V29.7398Z" fill="white"/>
</svg>
