<svg width="83" height="83" viewBox="0 0 83 83" fill="none" xmlns="http://www.w3.org/2000/svg">
<rect width="83" height="83" rx="41.5" fill="#112240"/>
<path d="M25.1476 24.0906C25.9597 24.0546 26.7664 24.2393 27.482 24.625C28.5789 25.2268 29.3495 26.2337 29.8473 27.4375H59.7808C59.9941 27.438 60.2046 27.487 60.3962 27.5809C60.5878 27.6747 60.7555 27.811 60.8867 27.9793C61.0179 28.1475 61.109 28.3435 61.1533 28.5522C61.1975 28.7609 61.1936 28.977 61.142 29.184L58.3295 40.434C58.2617 40.7073 58.1133 40.954 57.9037 41.142C57.6941 41.33 57.4329 41.4508 57.1539 41.4887L36.122 44.29L36.1164 44.2956C35.4892 44.4137 35.2445 45.0353 35.3373 45.7243C35.4329 46.464 35.7395 47.125 37.2808 47.125H54.1558C54.5287 47.125 54.8864 47.2731 55.1501 47.5368C55.4138 47.8006 55.562 48.1583 55.562 48.5312C55.562 48.9042 55.4138 49.2619 55.1501 49.5256C54.8864 49.7893 54.5287 49.9375 54.1558 49.9375H34.4683C34.1629 49.9369 33.866 49.837 33.6225 49.6528C33.3789 49.4687 33.2019 49.2102 33.1182 48.9165C31.2339 42.324 29.3411 35.7343 27.4651 29.1447C27.1558 28.0281 26.6326 27.3672 26.1208 27.0859C25.6004 26.799 24.9564 26.7315 23.8426 27.2884C23.5116 27.4361 23.1363 27.4503 22.7951 27.328C22.4538 27.2057 22.173 26.9564 22.0112 26.632C21.8494 26.3076 21.819 25.9333 21.9266 25.5871C22.0341 25.2409 22.2711 24.9496 22.5883 24.774C23.4376 24.3493 24.3067 24.1187 25.142 24.0906M52.7495 52.75C53.4954 52.75 54.2108 53.0463 54.7382 53.5737C55.2657 54.1012 55.562 54.8165 55.562 55.5625C55.562 56.3084 55.2657 57.0238 54.7382 57.5512C54.2108 58.0787 53.4954 58.375 52.7495 58.375C52.0036 58.375 51.2882 58.0787 50.7608 57.5512C50.2333 57.0238 49.937 56.3084 49.937 55.5625C49.937 54.8165 50.2333 54.1012 50.7608 53.5737C51.2882 53.0463 52.0036 52.75 52.7495 52.75ZM35.8745 52.75C36.6204 52.75 37.3358 53.0463 37.8632 53.5737C38.3907 54.1012 38.687 54.8165 38.687 55.5625C38.687 56.3084 38.3907 57.0238 37.8632 57.5512C37.3358 58.0787 36.6204 58.375 35.8745 58.375C35.1286 58.375 34.4132 58.0787 33.8858 57.5512C33.3583 57.0238 33.062 56.3084 33.062 55.5625C33.062 54.8165 33.3583 54.1012 33.8858 53.5737C34.4132 53.0463 35.1286 52.75 35.8745 52.75Z" fill="#C89B3C"/>
</svg>
